HIERARCHY
ROOT Hips
{
 OFFSET 0.000000 0.000000 0.000000
 CHANNELS 6 Xposition Yposition Zposition Yrotation Xrotation Zrotation
 JOINT Chest
 {
  OFFSET 0.000000 9.585900 0.002600
  CHANNELS 3 Yrotation Xrotation Zrotation
  JOINT Chest2
  {
   OFFSET 0.000000 9.601200 -0.005300
   CHANNELS 3 Yrotation Xrotation Zrotation
   JOINT Chest3
   {
    OFFSET 0.000000 9.561800 0.000000
    CHANNELS 3 Yrotation Xrotation Zrotation
    JOINT Chest4
    {
     OFFSET 0.000000 9.552100 0.000000
     CHANNELS 3 Yrotation Xrotation Zrotation
     JOINT Neck
     {
      OFFSET 0.000000 14.453000 0.000000
      CHANNELS 3 Yrotation Xrotation Zrotation
      JOINT Head
      {
       OFFSET 0.000000 8.936500 -0.011300
       CHANNELS 3 Yrotation Xrotation Zrotation
       End Site
       {
        OFFSET 0.000000 17.073600 -0.006000
       }
      }
     }
     JOINT RightCollar
     {
      OFFSET -2.921100 9.558500 0.000000
      CHANNELS 3 Yrotation Xrotation Zrotation
      JOINT RightShoulder
      {
       OFFSET -13.519700 0.000000 0.000000
       CHANNELS 3 Yrotation Xrotation Zrotation
       JOINT RightElbow
       {
        OFFSET 0.000000 -29.696600 0.000000
        CHANNELS 3 Yrotation Xrotation Zrotation
        JOINT RightWrist
        {
         OFFSET 0.000000 -24.004700 0.000000
         CHANNELS 3 Yrotation Xrotation Zrotation
         End Site
         {
          OFFSET 0.000000 -17.728500 0.000000
         }
        }
       }
      }
     }
     JOINT LeftCollar
     {
      OFFSET 2.921100 9.558500 0.000000
      CHANNELS 3 Yrotation Xrotation Zrotation
      JOINT LeftShoulder
      {
       OFFSET 13.519700 0.000000 0.000000
       CHANNELS 3 Yrotation Xrotation Zrotation
       JOINT LeftElbow
       {
        OFFSET 0.000000 -29.696600 0.000000
        CHANNELS 3 Yrotation Xrotation Zrotation
        JOINT LeftWrist
        {
         OFFSET 0.000000 -24.004700 0.000000
         CHANNELS 3 Yrotation Xrotation Zrotation
         End Site
         {
          OFFSET 0.000000 -17.728500 0.000000
         }
        }
       }
      }
     }
    }
   }
  }
 }
 JOINT RightHip
 {
  OFFSET -7.771700 -0.012900 -0.001300
  CHANNELS 3 Yrotation Xrotation Zrotation
  JOINT RightKnee
  {
   OFFSET 0.000000 -40.869800 0.001200
   CHANNELS 3 Yrotation Xrotation Zrotation
   JOINT RightAnkle
   {
    OFFSET 0.000000 -39.717900 0.002100
    CHANNELS 3 Yrotation Xrotation Zrotation
    JOINT RightToe
    {
     OFFSET 0.000000 -4.965400 11.033500
     CHANNELS 3 Yrotation Xrotation Zrotation
     End Site
     {
      OFFSET 0.000000 -1.423100 5.872300
     }
    }
   }
  }
 }
 JOINT LeftHip
 {
  OFFSET 7.771700 -0.012900 -0.001300
  CHANNELS 3 Yrotation Xrotation Zrotation
  JOINT LeftKnee
  {
   OFFSET 0.000000 -40.869800 0.001200
   CHANNELS 3 Yrotation Xrotation Zrotation
   JOINT LeftAnkle
   {
    OFFSET 0.000000 -39.717900 0.002100
    CHANNELS 3 Yrotation Xrotation Zrotation
    JOINT LeftToe
    {
     OFFSET 0.000000 -4.965400 11.033500
     CHANNELS 3 Yrotation Xrotation Zrotation
     End Site
     {
      OFFSET 0.000000 -1.423100 5.872300
     }
    }
   }
  }
 }
}
MOTION
Frames: 14
Frame Time: 0.008333
0.000000 85.388000 0.000000 0.000000 -5.767877 0.000000 0.000000 11.653817 0.000000 0.000000 -5.885947 0.000000 0.000000 -0.000000 0.000000 0.000000 -0.000000 0.000000 0.000000 12.528835 0.000000 0.000000 0.711642 0.000000 0.000000 -0.000000 0.000000 0.000000 0.000000 -90.000000 0.000000 -2.309062 0.000000 0.000000 2.309062 0.000000 0.000000 -0.000000 0.000000 0.000000 -0.000000 90.000000 0.000000 -2.309062 0.000000 0.000000 2.309062 0.000000 0.000000 8.520406 0.000000 0.000000 1.905762 0.000000 -0.000000 -4.658285 0.000000 0.000000 -0.000000 0.000000 0.000000 8.520406 0.000000 0.000000 1.905762 0.000000 -0.000000 -4.658285 0.000000 0.000000 -0.000000 0.000000
5.610669 52.235064 37.962834 170.115412 -36.350998 -2.056950 4.313295 23.571159 2.778318 0.566389 3.559853 0.464849 0.922514 5.692373 0.775434 3.629730 19.601259 3.145978 -0.423354 15.683929 -0.328435 -0.669829 -6.669725 -0.458727 -3.757539 -2.104171 -3.715906 2.399788 -16.125916 -2.950897 175.074130 -57.238725 -158.700240 1.867650 -15.463546 -14.709878 -6.742805 -2.329764 -0.295202 1.442334 -18.789123 3.050483 -176.688295 -52.395320 162.969456 -8.462518 -28.955388 31.375048 -3.169645 -44.814462 5.393259 144.919767 86.710996 147.765949 -4.624860 -11.329514 -0.532356 0.041283 -0.200888 0.038125 1.989105 -41.382373 6.577697 72.638571 83.769927 62.583022 -5.741436 -12.723297 10.437486 0.302547 1.422967 0.126132
5.617776 52.231264 37.955760 170.098080 -36.357190 -2.059899 4.338945 23.615778 2.778974 0.570910 3.572916 0.465469 0.933363 5.728755 0.773301 3.646044 19.611436 3.149617 -0.508016 15.902945 -0.219061 -0.866746 -6.262436 -0.225353 -3.764984 -2.111922 -3.739841 2.496296 -16.491733 -3.075523 174.542830 -56.924115 -158.298560 1.883779 -15.575077 -14.840116 -6.806982 -2.330906 -0.300862 1.305720 -19.094118 2.998199 -176.625332 -52.338630 162.935065 -8.449512 -28.912143 31.398389 -3.141456 -44.814296 5.442908 145.133519 86.705741 147.965912 -4.665377 -11.337952 -0.501257 0.051160 -0.201286 0.038291 1.955404 -41.381831 6.598079 72.869392 83.764787 62.817335 -5.731621 -12.737747 10.411041 0.296245 1.428846 0.127819
5.625574 52.226845 37.947906 170.078759 -36.361378 -2.063611 4.369332 23.668959 2.775825 0.570531 3.549295 0.479867 0.939390 5.759059 0.769656 3.664352 19.661502 3.146099 -0.587737 16.130060 -0.109043 -1.053507 -5.839674 0.006313 -3.773335 -2.117960 -3.757123 2.599852 -16.860281 -3.209194 174.011823 -56.599840 -157.901540 1.903305 -15.699622 -14.948276 -6.875766 -2.330333 -0.306524 1.153065 -19.390241 2.964262 -176.537937 -52.275475 162.892088 -8.443707 -28.875493 31.410157 -3.120138 -44.812546 5.480717 145.475599 86.706059 148.306167 -4.650717 -11.358017 -0.510101 0.036902 -0.193532 0.054354 1.925397 -41.381934 6.619265 73.136138 83.748707 63.091874 -5.742238 -12.757654 10.383880 0.304383 1.436525 0.128320
5.633421 52.222930 37.938465 170.064014 -36.370880 -2.069665 4.398235 23.717545 2.775447 0.567688 3.536514 0.491442 0.940180 5.750224 0.774477 3.684705 19.751718 3.134433 -0.667576 16.358343 -0.000052 -1.239046 -5.414135 0.234973 -3.783269 -2.116331 -3.769877 2.710242 -17.228976 -3.346233 173.465938 -56.266561 -157.497278 1.924637 -15.833139 -15.038421 -6.954576 -2.321681 -0.311122 0.989763 -19.674871 2.946955 -176.411410 -52.206186 162.827746 -8.445728 -28.851890 31.401577 -3.050603 -44.812890 5.571086 146.354151 86.720580 149.134116 -4.720069 -11.371152 -0.419598 0.062045 -0.195966 0.053991 1.894179 -41.374254 6.637237 73.401238 83.729460 63.367089 -5.755895 -12.784270 10.358559 0.313701 1.449482 0.126506
5.637574 52.218580 37.928790 170.070395 -36.372510 -2.069643 4.402067 23.761878 2.754727 0.572183 3.548515 0.491004 0.946308 5.772987 0.776019 3.696426 19.781110 3.135316 -0.749741 16.580341 0.104995 -1.426499 -4.999841 0.456131 -3.792093 -2.105126 -3.782900 2.822165 -17.597425 -3.479526 172.892628 -55.926965 -157.072556 1.942349 -15.970101 -15.114978 -7.044116 -2.304262 -0.318349 0.824581 -19.945975 2.946186 -176.234599 -52.133550 162.730104 -8.454694 -28.837432 31.371868 -2.995630 -44.821454 5.616321 147.218992 86.727094 149.964735 -4.771935 -11.384663 -0.343652 0.068531 -0.197145 0.053078 1.860792 -41.371920 6.631605 73.593072 83.712679 63.555690 -5.754154 -12.803563 10.356373 0.311705 1.461300 0.113322
5.640729 52.214516 37.919413 170.075332 -36.369087 -2.068854 4.402484 23.804396 2.733458 0.581280 3.559244 0.490298 0.956905 5.854350 0.763903 3.702194 19.750454 3.145408 -0.833880 16.788319 0.203387 -1.614346 -4.611259 0.664826 -3.795132 -2.090702 -3.792981 2.932488 -17.962385 -3.611634 172.299176 -55.582271 -156.627937 1.959896 -16.102197 -15.186415 -7.141000 -2.282479 -0.328860 0.663183 -20.203081 2.960778 -176.012902 -52.062056 162.597578 -8.468785 -28.815006 31.322228 -2.952369 -44.832076 5.651815 147.967460 86.730924 150.682827 -4.788705 -11.402171 -0.296140 0.054734 -0.194584 0.062360 1.825143 -41.374075 6.624981 73.775937 83.696332 63.735073 -5.748864 -12.823275 10.350384 0.301641 1.473034 0.102616
5.646616 52.212916 37.908805 170.061671 -36.379259 -2.079430 4.422443 23.861286 2.736926 0.590487 3.569177 0.488538 0.958783 5.898440 0.761770 3.713212 19.759535 3.145590 -0.920031 16.975640 0.292724 -1.802247 -4.260640 0.856917 -3.790551 -2.078329 -3.797317 3.041887 -18.320436 -3.745826 171.689107 -55.231842 -156.167881 1.978535 -16.220371 -15.251073 -7.240034 -2.258500 -0.339142 0.503851 -20.449644 2.984459 -175.765999 -52.000475 162.438638 -8.482579 -28.768677 31.241197 -2.917403 -44.823589 5.722648 148.632737 86.741552 151.317090 -4.815596 -11.417310 -0.250485 0.052423 -0.193710 0.067059 1.778393 -41.362922 6.646875 74.035057 83.675390 64.000391 -5.749148 -12.852285 10.319055 0.308946 1.486890 0.105491
5.650178 52.210515 37.900810 170.044013 -36.368527 -2.085600 4.441764 23.873765 2.745108 0.593230 3.607762 0.479579 0.959673 5.920515 0.763705 3.722866 19.730493 3.147563 -1.013021 17.198660 0.363957 -1.990056 -3.953909 1.029237 -3.780508 -2.009163 -3.808038 3.153979 -18.668604 -3.880306 171.061241 -54.877556 -155.693244 1.998093 -16.318242 -15.304163 -7.336825 -2.175528 -0.361471 0.343594 -20.687735 3.012416 -175.532586 -51.964439 162.280918 -8.492414 -28.694985 31.110170 -2.879644 -44.837662 5.792925 149.283254 86.753929 151.935047 -4.850806 -11.431292 -0.205876 0.049534 -0.190605 0.073417 1.728924 -41.371694 6.666861 74.246591 83.649308 64.219528 -5.765364 -12.875874 10.277846 0.320867 1.508461 0.122900
5.659558 52.212592 37.890173 170.015676 -36.388083 -2.126849 4.488915 23.912984 2.800758 0.592416 3.646605 0.471892 0.961198 5.945995 0.766389 3.732192 19.792615 3.141652 -1.100750 17.308983 0.434981 -2.175343 -3.692556 1.180933 -3.760405 -2.032980 -3.803180 3.272548 -19.002637 -4.013624 170.421935 -54.527971 -155.210304 2.021829 -16.398353 -15.345810 -7.425006 -2.182613 -0.363704 0.180907 -20.916929 3.045574 -175.356645 -51.972662 162.156968 -8.489948 -28.602754 30.920966 -2.867186 -44.809845 5.918895 149.940956 86.781688 152.562437 -4.868345 -11.438068 -0.165866 0.057509 -0.197065 0.062595 1.646961 -41.352896 6.732587 74.502018 83.629757 64.515910 -5.790355 -12.912122 10.191301 0.372345 1.532757 0.150526
5.656022 52.211832 37.882570 170.020084 -36.368866 -2.124733 4.472941 23.943782 2.775648 0.585435 3.732838 0.461532 0.975869 5.904847 0.778948 3.736880 19.859337 3.136807 -1.185872 17.395461 0.495763 -2.355556 -3.471751 1.314432 -3.731280 -2.065990 -3.801987 3.395054 -19.321928 -4.143160 169.788784 -54.191501 -154.737016 2.050337 -16.466992 -15.374258 -7.505845 -2.198479 -0.366715 0.014934 -21.136856 3.087279 -175.270712 -52.038350 162.089022 -8.464807 -28.502875 30.686762 -2.818369 -44.832760 5.949723 150.709069 86.793745 153.296139 -4.892615 -11.452122 -0.117725 0.047446 -0.193008 0.076793 1.591667 -41.367808 6.723382 74.676589 83.613330 64.695297 -5.828991 -12.940118 10.156279 0.424199 1.559611 0.162223
5.657055 52.213826 37.874231 170.004924 -36.365712 -2.147020 4.488042 23.991293 2.793112 0.590508 3.750200 0.463429 0.979006 5.930963 0.780597 3.739662 19.896624 3.136494 -1.273309 17.497565 0.545894 -2.531629 -3.278819 1.433923 -3.710441 -2.135624 -3.802630 3.536499 -19.562605 -4.268185 169.179674 -53.869741 -154.290320 2.081651 -16.525451 -15.383347 -7.585033 -2.191204 -0.375933 -0.153797 -21.343081 3.138861 -175.296626 -52.162224 162.093320 -8.415487 -28.398355 30.427595 -2.782531 -44.831924 6.030396 151.466738 86.819742 154.024805 -4.919393 -11.459824 -0.070704 0.040798 -0.189153 0.090076 1.520831 -41.368525 6.759368 74.845624 83.594957 64.870669 -5.815634 -12.955377 10.108085 0.431044 1.566379 0.174910
5.654724 52.216768 37.865389 170.001391 -36.364820 -2.164798 4.492733 24.043699 2.800744 0.593777 3.762835 0.465756 0.981634 5.957286 0.783321 3.740998 19.933856 3.139703 -1.360869 17.591909 0.589482 -2.705623 -3.100294 1.541152 -3.689276 -2.201532 -3.808780 3.686793 -19.785994 -4.380359 168.594484 -53.567264 -153.869080 2.111723 -16.573519 -15.367629 -7.662836 -2.187584 -0.386987 -0.325689 -21.530699 3.198779 -175.428696 -52.338797 162.167732 -8.343559 -28.287722 30.160187 -2.770278 -44.825474 6.074514 151.828962 86.832209 154.371305 -4.922423 -11.468394 -0.058502 0.040060 -0.191719 0.093704 1.452548 -41.367825 6.775625 75.004954 83.575769 65.037226 -5.805969 -12.958675 10.070943 0.447967 1.563276 0.176917
5.651047 52.220415 37.856489 169.996985 -36.366334 -2.181573 4.499564 24.094084 2.809534 0.598947 3.744833 0.471683 0.979464 6.013376 0.784437 3.740063 19.969643 3.146469 -1.448555 17.682327 0.626760 -2.877610 -2.929090 1.636582 -3.636518 -2.102798 -3.829997 3.804026 -20.147978 -4.478328 168.040091 -53.293876 -153.471282 2.135913 -16.608737 -15.326176 -7.735766 -2.183624 -0.401664 -0.505582 -21.701084 3.265860 -175.626417 -52.561383 162.286329 -8.254431 -28.166101 29.904333 -2.756427 -44.816109 6.117980 152.152023 86.845546 154.676100 -4.927168 -11.475554 -0.044767 0.050447 -0.200358 0.077227 1.389016 -41.367014 6.786610 75.175791 83.555879 65.216648 -5.790311 -12.951433 10.046044 0.461665 1.551095 0.169615
